<svg xmlns="http://www.w3.org/2000/svg" version="1.1" xmlns:xlink="http://www.w3.org/1999/xlink" xmlns:svgjs="http://svgjs.dev/svgjs" width="1000" height="106" viewBox="0 0 1000 106"><g transform="matrix(1,0,0,1,-0.6060604024397094,0.37388528580970615)"><svg viewBox="0 0 396 42" data-background-color="#655aad" preserveAspectRatio="xMidYMid meet" height="106" width="1000" xmlns="http://www.w3.org/2000/svg" xmlns:xlink="http://www.w3.org/1999/xlink"><g id="tight-bounds" transform="matrix(1,0,0,1,0.24000008063387668,-0.1481432264529019)"><svg viewBox="0 0 395.52 42.29628645290579" height="42.29628645290579" width="395.52"><g><svg viewBox="0 0 452.1292300222944 48.349988437385456" height="42.29628645290579" width="395.52"><g transform="matrix(1,0,0,1,0,6.682234291997556)"><svg viewBox="0 0 395.52 34.98551985339034" height="34.98551985339034" width="395.52"><g><svg viewBox="0 0 395.52 34.98551985339034" height="34.98551985339034" width="395.52"><g><svg viewBox="0 0 395.52 34.98551985339034" height="34.98551985339034" width="395.52"><g transform="matrix(1,0,0,1,0,0)"><svg width="395.52" viewBox="4.300000190734863 -35.45000076293945 409.2200012207031 36.20000076293945" height="34.98551985339034" data-palette-color="#ffffff"><path d="M32.1 0L28.05 0Q26.95-1.85 25.53-4.15 24.1-6.45 22.45-8.93 20.8-11.4 19.03-13.95 17.25-16.5 15.5-18.88 13.75-21.25 12.1-23.35 10.45-25.45 9.05-27.05L9.05-27.05 9.05 0 4.3 0 4.3-34.65 8.15-34.65Q10.5-32.15 13.18-28.83 15.85-25.5 18.48-21.98 21.1-18.45 23.43-15.05 25.75-11.65 27.35-9L27.35-9 27.35-34.65 32.1-34.65 32.1 0ZM63.1 0L40.7 0 40.7-34.65 61.85-34.65 61.85-30.5 45.55-30.5 45.55-20.2 60.05-20.2 60.05-16.15 45.55-16.15 45.55-4.15 63.1-4.15 63.1 0ZM66.45-17.35L66.45-17.35Q66.45-21.8 67.77-25.2 69.1-28.6 71.37-30.88 73.65-33.15 76.67-34.3 79.7-35.45 83.1-35.45L83.1-35.45Q86.45-35.45 89.42-34.3 92.4-33.15 94.65-30.88 96.9-28.6 98.22-25.2 99.55-21.8 99.55-17.35L99.55-17.35Q99.55-12.9 98.22-9.5 96.9-6.1 94.65-3.83 92.4-1.55 89.42-0.4 86.45 0.75 83.1 0.75L83.1 0.75Q79.7 0.75 76.67-0.4 73.65-1.55 71.37-3.83 69.1-6.1 67.77-9.5 66.45-12.9 66.45-17.35ZM71.55-17.35L71.55-17.35Q71.55-14.2 72.35-11.63 73.15-9.05 74.62-7.25 76.1-5.45 78.22-4.48 80.35-3.5 83-3.5L83-3.5Q85.65-3.5 87.75-4.48 89.85-5.45 91.32-7.25 92.8-9.05 93.6-11.63 94.4-14.2 94.4-17.35L94.4-17.35Q94.4-20.5 93.6-23.08 92.8-25.65 91.32-27.45 89.85-29.25 87.75-30.23 85.65-31.2 83-31.2L83-31.2Q80.35-31.2 78.22-30.23 76.1-29.25 74.62-27.45 73.15-25.65 72.35-23.08 71.55-20.5 71.55-17.35ZM116.09 0.3L116.09 0.3Q115.04 0.3 113.82 0.25 112.59 0.2 111.37 0.1 110.14 0 108.94-0.15 107.74-0.3 106.74-0.55L106.74-0.55 106.74-34.15Q107.74-34.4 108.94-34.55 110.14-34.7 111.37-34.8 112.59-34.9 113.79-34.95 114.99-35 116.04-35L116.04-35Q119.04-35 121.67-34.55 124.29-34.1 126.22-33.02 128.14-31.95 129.24-30.2 130.34-28.45 130.34-25.9L130.34-25.9Q130.34-23.05 128.99-21.23 127.64-19.4 125.39-18.5L125.39-18.5Q128.44-17.6 130.24-15.65 132.04-13.7 132.04-10.15L132.04-10.15Q132.04-4.95 128.22-2.33 124.39 0.3 116.09 0.3ZM117.79-16.15L111.54-16.15 111.54-3.95Q112.09-3.9 112.84-3.85L112.84-3.85Q113.49-3.8 114.37-3.78 115.24-3.75 116.39-3.75L116.39-3.75Q118.54-3.75 120.47-4.03 122.39-4.3 123.84-5 125.29-5.7 126.17-6.95 127.04-8.2 127.04-10.1L127.04-10.1Q127.04-11.8 126.39-12.98 125.74-14.15 124.52-14.85 123.29-15.55 121.59-15.85 119.89-16.15 117.79-16.15L117.79-16.15ZM111.54-30.75L111.54-20.05 116.64-20.05Q118.44-20.05 120.04-20.3 121.64-20.55 122.82-21.2 123.99-21.85 124.67-22.9 125.34-23.95 125.34-25.55L125.34-25.55Q125.34-27.05 124.64-28.08 123.94-29.1 122.72-29.73 121.49-30.35 119.84-30.65 118.19-30.95 116.34-30.95L116.34-30.95Q114.49-30.95 113.44-30.9 112.39-30.85 111.54-30.75L111.54-30.75ZM167.34 0L162.04 0Q161.19-2.25 160.44-4.42 159.69-6.6 158.89-8.85L158.89-8.85 143.19-8.85 140.04 0 134.99 0Q136.99-5.5 138.74-10.18 140.49-14.85 142.17-19.05 143.84-23.25 145.49-27.08 147.14-30.9 148.94-34.65L148.94-34.65 153.39-34.65Q155.19-30.9 156.84-27.08 158.49-23.25 160.17-19.05 161.84-14.85 163.59-10.18 165.34-5.5 167.34 0L167.34 0ZM144.59-12.85L157.49-12.85Q155.89-17.2 154.32-21.28 152.74-25.35 151.04-29.1L151.04-29.1Q149.29-25.35 147.72-21.28 146.14-17.2 144.59-12.85L144.59-12.85ZM199.84 0L195.79 0Q194.69-1.85 193.26-4.15 191.84-6.45 190.19-8.93 188.54-11.4 186.76-13.95 184.99-16.5 183.24-18.88 181.49-21.25 179.84-23.35 178.19-25.45 176.79-27.05L176.79-27.05 176.79 0 172.04 0 172.04-34.65 175.89-34.65Q178.24-32.15 180.91-28.83 183.59-25.5 186.21-21.98 188.84-18.45 191.16-15.05 193.49-11.65 195.09-9L195.09-9 195.09-34.65 199.84-34.65 199.84 0ZM228.24-34.65L234.09-34.65Q232.54-32.95 230.59-30.88 228.64-28.8 226.51-26.63 224.39-24.45 222.29-22.35 220.19-20.25 218.34-18.45L218.34-18.45Q220.49-16.95 222.89-14.75 225.29-12.55 227.59-10.05 229.89-7.55 231.91-4.95 233.94-2.35 235.29 0L235.29 0 229.59 0Q228.09-2.35 226.14-4.73 224.19-7.1 222.01-9.28 219.84-11.45 217.61-13.3 215.39-15.15 213.29-16.45L213.29-16.45 213.29 0 208.44 0 208.44-34.65 213.29-34.65 213.29-19.35Q215.04-21 217.14-23.08 219.24-25.15 221.29-27.25 223.34-29.35 225.16-31.28 226.99-33.2 228.24-34.65L228.24-34.65ZM262.28 0L239.88 0 239.88-34.65 261.03-34.65 261.03-30.5 244.73-30.5 244.73-20.2 259.23-20.2 259.23-16.15 244.73-16.15 244.73-4.15 262.28-4.15 262.28 0ZM294.68 0L289.23 0Q288.48-1.5 287.43-3.33 286.38-5.15 285.13-7.13 283.88-9.1 282.53-11.08 281.18-13.05 279.93-14.8L279.93-14.8Q278.68-13.05 277.33-11.08 275.98-9.1 274.76-7.13 273.53-5.15 272.46-3.33 271.38-1.5 270.63 0L270.63 0 265.28 0Q267.53-4.4 270.51-8.95 273.48-13.5 276.83-18.3L276.83-18.3 265.73-34.65 271.33-34.65 279.88-21.75 288.33-34.65 293.88-34.65 282.98-18.5Q286.38-13.65 289.38-9.05 292.38-4.45 294.68 0L294.68 0ZM309.18-35L309.18-35Q316.48-35 320.4-32.23 324.33-29.45 324.33-23.95L324.33-23.95Q324.33-20.95 323.25-18.82 322.18-16.7 320.15-15.38 318.13-14.05 315.23-13.45 312.33-12.85 308.68-12.85L308.68-12.85 304.83-12.85 304.83 0 299.98 0 299.98-34.15Q302.03-34.65 304.55-34.83 307.08-35 309.18-35ZM309.58-30.75L309.58-30.75Q306.48-30.75 304.83-30.6L304.83-30.6 304.83-17 308.48-17Q310.98-17 312.98-17.32 314.98-17.65 316.35-18.43 317.73-19.2 318.48-20.55 319.23-21.9 319.23-24L319.23-24Q319.23-26 318.45-27.3 317.68-28.6 316.35-29.38 315.03-30.15 313.28-30.45 311.53-30.75 309.58-30.75ZM352.78 0L330.38 0 330.38-34.65 351.53-34.65 351.53-30.5 335.23-30.5 335.23-20.2 349.73-20.2 349.73-16.15 335.23-16.15 335.23-4.15 352.78-4.15 352.78 0ZM375.87-14.5L375.87-14.5Q376.67-13.5 377.9-11.88 379.12-10.25 380.42-8.28 381.72-6.3 383-4.15 384.27-2 385.17 0L385.17 0 379.87 0Q378.87-1.9 377.7-3.85 376.52-5.8 375.32-7.58 374.12-9.35 372.95-10.9 371.77-12.45 370.82-13.6L370.82-13.6Q370.17-13.55 369.5-13.55 368.82-13.55 368.12-13.55L368.12-13.55 363.77-13.55 363.77 0 358.92 0 358.92-34.15Q360.97-34.65 363.5-34.83 366.02-35 368.12-35L368.12-35Q375.42-35 379.25-32.25 383.07-29.5 383.07-24.05L383.07-24.05Q383.07-20.6 381.25-18.15 379.42-15.7 375.87-14.5ZM368.52-30.75L368.52-30.75Q365.42-30.75 363.77-30.6L363.77-30.6 363.77-17.55 367.22-17.55Q369.72-17.55 371.72-17.8 373.72-18.05 375.1-18.75 376.47-19.45 377.22-20.73 377.97-22 377.97-24.1L377.97-24.1Q377.97-26.05 377.22-27.35 376.47-28.65 375.2-29.4 373.92-30.15 372.2-30.45 370.47-30.75 368.52-30.75ZM386.87-34.65L413.52-34.65 413.52-30.45 402.62-30.45 402.62 0 397.77 0 397.77-30.45 386.87-30.45 386.87-34.65Z" opacity="1" transform="matrix(1,0,0,1,0,0)" fill="#ffffff" class="undefined-text-0" data-fill-palette-color="primary" id="text-0"></path></svg></g></svg></g></svg></g></svg></g><g transform="matrix(1,0,0,1,403.77924158490896,0)"><svg viewBox="0 0 48.349988437385456 48.349988437385456" height="48.349988437385456" width="48.349988437385456"><g data-palette-color="#ffffff"><rect width="13.215663506218691" height="48.349988437385456" fill="#ffffff" stroke="transparent" data-fill-palette-color="accent" x="0" fill-opacity="1"></rect><rect width="13.215663506218691" height="48.349988437385456" fill="#ffffff" stroke="transparent" data-fill-palette-color="accent" x="16.11666281246182" fill-opacity="0.75"></rect><rect width="13.215663506218691" height="48.349988437385456" fill="#ffffff" stroke="transparent" data-fill-palette-color="accent" x="32.23332562492364" fill-opacity="0.5"></rect></g></svg></g></svg></g><defs></defs></svg><rect width="395.52" height="42.29628645290579" fill="none" stroke="none" visibility="hidden"></rect></g></svg></g></svg>