<svg xmlns="http://www.w3.org/2000/svg" version="1.1" xmlns:xlink="http://www.w3.org/1999/xlink" xmlns:svgjs="http://svgjs.dev/svgjs" width="1000" height="1000" viewBox="0 0 1000 1000"><rect width="1000" height="1000" fill="#ffffff"></rect><g transform="matrix(0.7,0,0,0.7,149.57575757575756,413.0764748506254)"><svg viewBox="0 0 396 99" data-background-color="#ffffff" preserveAspectRatio="xMidYMid meet" height="249" width="1000" xmlns="http://www.w3.org/2000/svg" xmlns:xlink="http://www.w3.org/1999/xlink"><g id="tight-bounds" transform="matrix(1,0,0,1,0.2400000000000091,-0.12863459674073852)"><svg viewBox="0 0 395.52 99.25726919348148" height="99.25726919348148" width="395.52"><g><svg viewBox="0 0 395.52 99.25726919348148" height="99.25726919348148" width="395.52"><g><svg viewBox="0 0 395.52 99.25726919348148" height="99.25726919348148" width="395.52"><g><svg viewBox="0 0 395.52 99.25726919348148" height="99.25726919348148" width="395.52"><g><rect width="395.52" height="79.37964325925925" fill="none" stroke-width="9.018103199999999" stroke="#988bf1" data-fill-palette-color="none" data-stroke-palette-color="tertiary"></rect><rect width="395.52" height="19.87762593422222" y="79.37964325925925" fill="#988bf1" data-fill-palette-color="tertiary"></rect></g><g><svg viewBox="0 0 395.52 79.37964325925925" height="79.37964325925925" width="395.52"><g transform="matrix(1,0,0,1,23.607599999999998,23.607599999999998)"><svg width="348.3048" viewBox="4.880000114440918 -36.040000915527344 395.47998046875 36.53000259399414" height="32.16444325925926" data-palette-color="#988bf1"><path d="M30.49-35.55L30.49 0 29.17 0 6.23-33.3 6.23 0 4.88 0 4.88-35.55 6.23-35.55 29.17-2.32 29.17-35.55 30.49-35.55ZM59.4-18.95L59.4-17.63 41.57-17.63 41.57-1.32 61.89-1.32 61.89 0 40.26 0 40.26-35.55 61.89-35.55 61.89-34.23 41.57-34.23 41.57-18.95 59.4-18.95ZM93.89-20.43L93.89-15.11Q93.89-10.5 92.24-6.95 90.6-3.39 87.54-1.45 84.49 0.49 80.51 0.49L80.51 0.49Q74.51 0.49 70.8-3.78 67.08-8.06 67.08-15.31L67.08-15.31 67.08-20.43Q67.08-25.02 68.73-28.59 70.38-32.15 73.44-34.09 76.51-36.04 80.46-36.04L80.46-36.04Q84.44-36.04 87.51-34.09 90.57-32.15 92.23-28.58 93.89-25 93.89-20.43L93.89-20.43ZM92.57-15.31L92.57-20.48Q92.57-26.93 89.3-30.82 86.03-34.72 80.46-34.72L80.46-34.72Q74.97-34.72 71.7-30.85 68.43-26.98 68.43-20.31L68.43-20.31 68.43-15.11Q68.43-10.86 69.9-7.6 71.38-4.35 74.12-2.59 76.85-0.83 80.51-0.83L80.51-0.83Q86.08-0.83 89.33-4.71 92.57-8.59 92.57-15.31L92.57-15.31ZM113.47 0L102.02 0 102.02-35.55 111.37-35.55Q117.11-35.55 120.05-33.22 122.99-30.88 122.99-26.44L122.99-26.44Q122.99-23.22 121.35-21.09 119.72-18.97 116.74-18.38L116.74-18.38Q120.11-17.94 122.36-15.47 124.6-12.99 124.6-9.79L124.6-9.79Q124.6-5.25 121.66-2.62 118.72 0 113.47 0L113.47 0ZM114.13-17.55L103.34-17.55 103.34-1.32 113.62-1.32Q118.13-1.32 120.71-3.55 123.28-5.79 123.28-9.74L123.28-9.74Q123.28-13.11 120.79-15.3 118.3-17.48 114.13-17.55L114.13-17.55ZM103.34-34.23L103.34-18.87 111.86-18.87Q116.72-18.87 119.18-20.74 121.65-22.61 121.65-26.54L121.65-26.54Q121.65-34.11 111.66-34.23L111.66-34.23 103.34-34.23ZM154.87 0L150.89-10.62 133.49-10.62 129.53 0 128.09 0 141.4-35.55 143.01-35.55 156.31 0 154.87 0ZM142.2-33.96L133.97-11.94 150.41-11.94 142.2-33.96ZM187.63-35.55L187.63 0 186.32 0 163.37-33.3 163.37 0 162.02 0 162.02-35.55 163.37-35.55 186.32-2.32 186.32-35.55 187.63-35.55ZM220.74 0L204.4-18.7 198.72-13.45 198.72 0 197.4 0 197.4-35.55 198.72-35.55 198.72-14.99 204.57-20.73 219.32-35.55 221.23-35.55 205.38-19.6 222.45 0 220.74 0ZM248.27-18.95L248.27-17.63 230.45-17.63 230.45-1.32 250.76-1.32 250.76 0 229.13 0 229.13-35.55 250.76-35.55 250.76-34.23 230.45-34.23 230.45-18.95 248.27-18.95ZM256.16-35.55L267.63-19.17 279.11-35.55 280.77-35.55 268.46-18.14 281.23 0 279.59 0 267.63-17.11 255.62 0 254.03 0 266.8-18.14 254.5-35.55 256.16-35.55ZM298.73-15.01L288.77-15.01 288.77 0 287.45 0 287.45-35.55 298.56-35.55Q304.01-35.55 307.02-32.8 310.04-30.05 310.04-25.17L310.04-25.17Q310.04-20.34 307.09-17.7 304.15-15.06 298.73-15.01L298.73-15.01ZM288.77-34.23L288.77-16.33 298.56-16.33Q303.37-16.33 306.04-18.65 308.72-20.97 308.72-25.12L308.72-25.12Q308.72-29.42 306.04-31.82 303.37-34.23 298.56-34.23L298.56-34.23 288.77-34.23ZM336.62-18.95L336.62-17.63 318.8-17.63 318.8-1.32 339.11-1.32 339.11 0 317.48 0 317.48-35.55 339.11-35.55 339.11-34.23 318.8-34.23 318.8-18.95 336.62-18.95ZM368.92 0L359.47-15.21 347.14-15.21 347.14 0 345.82 0 345.82-35.55 357.15-35.55Q362.5-35.55 365.66-32.79 368.82-30.03 368.82-25.29L368.82-25.29Q368.82-21.66 366.56-18.93 364.3-16.21 360.81-15.55L360.81-15.55 370.31-0.34 370.31 0 368.92 0ZM347.14-34.23L347.14-16.53 358.35-16.53Q362.45-16.53 364.97-19.02 367.5-21.51 367.5-25.29L367.5-25.29Q367.5-29.44 364.71-31.84 361.91-34.23 357.05-34.23L357.05-34.23 347.14-34.23ZM400.36-35.55L400.36-34.23 387.42-34.23 387.42 0 386.1 0 386.1-34.23 373.16-34.23 373.16-35.55 400.36-35.55Z" opacity="1" transform="matrix(1,0,0,1,0,0)" fill="#988bf1" class="undefined-text-0" data-fill-palette-color="primary" id="text-0"></path></svg></g></svg></g></svg></g></svg></g></svg></g><defs></defs></svg><rect width="395.52" height="99.25726919348148" fill="none" stroke="none" visibility="hidden"></rect></g></svg></g></svg>